<svg xmlns="http://www.w3.org/2000/svg" xmlns:xlink="http://www.w3.org/1999/xlink" width="500" zoomAndPan="magnify" viewBox="0 0 375 374.999991" height="500" preserveAspectRatio="xMidYMid meet" version="1.0"><defs><g/><clipPath id="3f49ade8ab"><path d="M 33.324219 116.03125 L 91.824219 116.03125 L 91.824219 230.78125 L 33.324219 230.78125 Z M 33.324219 116.03125 " clip-rule="nonzero"/></clipPath><clipPath id="998962886a"><rect x="0" width="17" y="0" height="18"/></clipPath></defs><rect x="-37.5" width="450" fill="#ffffff" y="-37.499999" height="449.999989" fill-opacity="1"/><rect x="-37.5" width="450" fill="#eef0f2" y="-37.499999" height="449.999989" fill-opacity="1"/><g clip-path="url(#3f49ade8ab)"><path fill="#ffffff" d="M 86.480469 230.582031 L 38.898438 230.582031 C 36.09375 230.582031 33.867188 228.355469 33.867188 225.550781 L 33.867188 121.476562 C 33.867188 118.671875 36.09375 116.445312 38.898438 116.445312 L 86.480469 116.445312 C 89.285156 116.445312 91.511719 118.671875 91.511719 121.476562 L 91.511719 225.550781 C 91.511719 228.355469 89.285156 230.582031 86.480469 230.582031 Z M 86.480469 230.582031 " fill-opacity="1" fill-rule="nonzero"/><path fill="#000000" d="M 86.480469 230.992188 L 38.898438 230.992188 C 35.847656 230.992188 33.453125 228.519531 33.453125 225.550781 L 33.453125 121.476562 C 33.453125 118.507812 35.929688 116.03125 38.898438 116.03125 L 86.480469 116.03125 C 89.535156 116.03125 91.925781 118.507812 91.925781 121.476562 L 91.925781 225.550781 C 91.925781 228.601562 89.535156 230.992188 86.480469 230.992188 Z M 38.898438 116.859375 C 36.339844 116.859375 34.28125 118.917969 34.28125 121.476562 L 34.28125 225.550781 C 34.28125 228.105469 36.339844 230.167969 38.898438 230.167969 L 86.480469 230.167969 C 89.039062 230.167969 91.101562 228.105469 91.101562 225.550781 L 91.101562 121.476562 C 91.101562 118.917969 89.039062 116.859375 86.480469 116.859375 Z M 38.898438 116.859375 " fill-opacity="1" fill-rule="nonzero"/></g><path fill="#ffbe0b" d="M 84.667969 213.59375 L 40.792969 213.59375 C 38.402344 213.59375 36.425781 211.613281 36.425781 209.222656 L 36.425781 125.1875 C 36.425781 122.796875 38.402344 120.816406 40.792969 120.816406 L 84.667969 120.816406 C 87.058594 120.816406 89.039062 122.796875 89.039062 125.1875 L 89.039062 209.222656 C 88.957031 211.695312 87.058594 213.59375 84.667969 213.59375 Z M 84.667969 213.59375 " fill-opacity="1" fill-rule="nonzero"/><path fill="#000000" d="M 84.667969 214.003906 L 40.792969 214.003906 C 38.15625 214.003906 36.011719 211.859375 36.011719 209.222656 L 36.011719 125.1875 C 36.011719 122.546875 38.15625 120.402344 40.792969 120.402344 L 84.667969 120.402344 C 87.308594 120.402344 89.449219 122.546875 89.449219 125.1875 L 89.449219 209.222656 C 89.367188 211.859375 87.222656 214.003906 84.667969 214.003906 Z M 40.792969 121.3125 C 38.652344 121.3125 36.835938 123.042969 36.835938 125.269531 L 36.835938 209.304688 C 36.835938 211.449219 38.566406 213.261719 40.792969 213.261719 L 84.667969 213.261719 C 86.8125 213.261719 88.625 211.53125 88.625 209.304688 L 88.625 125.1875 C 88.625 123.042969 86.894531 121.226562 84.667969 121.226562 L 40.792969 121.226562 Z M 40.792969 121.3125 " fill-opacity="1" fill-rule="nonzero"/><path fill="#ffbe0b" d="M 67.515625 221.34375 C 67.515625 221.660156 67.484375 221.96875 67.421875 222.277344 C 67.359375 222.585938 67.269531 222.886719 67.152344 223.175781 C 67.03125 223.464844 66.882812 223.742188 66.707031 224.003906 C 66.535156 224.261719 66.335938 224.503906 66.113281 224.726562 C 65.890625 224.949219 65.648438 225.148438 65.390625 225.320312 C 65.128906 225.496094 64.851562 225.644531 64.5625 225.765625 C 64.273438 225.882812 63.972656 225.976562 63.664062 226.035156 C 63.355469 226.097656 63.046875 226.128906 62.730469 226.128906 C 62.417969 226.128906 62.105469 226.097656 61.796875 226.035156 C 61.488281 225.976562 61.191406 225.882812 60.902344 225.765625 C 60.609375 225.644531 60.335938 225.496094 60.074219 225.320312 C 59.8125 225.148438 59.570312 224.949219 59.347656 224.726562 C 59.128906 224.503906 58.929688 224.261719 58.753906 224.003906 C 58.578125 223.742188 58.433594 223.464844 58.3125 223.175781 C 58.191406 222.886719 58.101562 222.585938 58.039062 222.277344 C 57.980469 221.96875 57.949219 221.660156 57.949219 221.34375 C 57.949219 221.03125 57.980469 220.71875 58.039062 220.410156 C 58.101562 220.105469 58.191406 219.804688 58.3125 219.515625 C 58.433594 219.222656 58.578125 218.949219 58.753906 218.6875 C 58.929688 218.425781 59.128906 218.183594 59.347656 217.960938 C 59.570312 217.742188 59.8125 217.542969 60.074219 217.367188 C 60.335938 217.195312 60.609375 217.046875 60.902344 216.925781 C 61.191406 216.804688 61.488281 216.714844 61.796875 216.652344 C 62.105469 216.59375 62.417969 216.5625 62.730469 216.5625 C 63.046875 216.5625 63.355469 216.59375 63.664062 216.652344 C 63.972656 216.714844 64.273438 216.804688 64.5625 216.925781 C 64.851562 217.046875 65.128906 217.195312 65.390625 217.367188 C 65.648438 217.542969 65.890625 217.742188 66.113281 217.960938 C 66.335938 218.183594 66.535156 218.425781 66.707031 218.6875 C 66.882812 218.949219 67.03125 219.222656 67.152344 219.515625 C 67.269531 219.804688 67.359375 220.105469 67.421875 220.410156 C 67.484375 220.71875 67.515625 221.03125 67.515625 221.34375 Z M 67.515625 221.34375 " fill-opacity="1" fill-rule="nonzero"/><path fill="#000000" d="M 62.730469 226.457031 C 59.925781 226.457031 57.617188 224.148438 57.617188 221.34375 C 57.617188 218.539062 59.925781 216.230469 62.730469 216.230469 C 65.535156 216.230469 67.84375 218.539062 67.84375 221.34375 C 67.84375 224.148438 65.535156 226.457031 62.730469 226.457031 Z M 62.730469 216.972656 C 60.339844 216.972656 58.441406 218.953125 58.441406 221.261719 C 58.441406 223.570312 60.421875 225.550781 62.730469 225.550781 C 65.039062 225.550781 67.019531 223.570312 67.019531 221.261719 C 67.019531 218.953125 65.121094 216.972656 62.730469 216.972656 Z M 62.730469 216.972656 " fill-opacity="1" fill-rule="nonzero"/><path fill="#000000" d="M 72.214844 123.453125 L 53.164062 123.453125 C 51.761719 123.453125 50.527344 122.300781 50.527344 120.816406 C 50.527344 119.414062 51.679688 118.175781 53.164062 118.175781 L 72.214844 118.175781 C 73.617188 118.175781 74.855469 119.332031 74.855469 120.816406 C 74.855469 122.300781 73.699219 123.453125 72.214844 123.453125 Z M 72.214844 123.453125 " fill-opacity="1" fill-rule="nonzero"/><path fill="#ffffff" d="M 43.1875 133.679688 C 42.9375 133.679688 42.773438 133.515625 42.773438 133.269531 L 42.773438 130.21875 C 42.773438 129.96875 42.9375 129.804688 43.1875 129.804688 C 43.433594 129.804688 43.597656 129.96875 43.597656 130.21875 L 43.597656 133.269531 C 43.597656 133.515625 43.351562 133.679688 43.1875 133.679688 Z M 43.1875 133.679688 " fill-opacity="1" fill-rule="nonzero"/><path fill="#ffffff" d="M 43.1875 159.410156 C 42.9375 159.410156 42.773438 159.246094 42.773438 159 L 42.773438 136.484375 C 42.773438 136.238281 42.9375 136.074219 43.1875 136.074219 C 43.433594 136.074219 43.597656 136.238281 43.597656 136.484375 L 43.597656 159 C 43.597656 159.246094 43.351562 159.410156 43.1875 159.410156 Z M 43.1875 159.410156 " fill-opacity="1" fill-rule="nonzero"/><g fill="#000000" fill-opacity="1"><g transform="translate(49.570556, 187.647028)"><g><path d="M 22.46875 -3.625 L 22.46875 0 L 6.890625 0 L 6.890625 -3.625 Z M 26.25 -35.75 L 26.25 -32.125 L 2.546875 -32.125 L 6.390625 -35.75 Z M 6.390625 -31.625 L 6.390625 0 L 2.546875 -3.625 L 2.546875 -31.625 Z M 13.328125 -15.578125 L 13.328125 -19.203125 L 22.984375 -19.203125 L 26.8125 -15.578125 Z M 22.984375 0 L 22.984375 -15.0625 L 26.8125 -15.0625 L 26.8125 -3.625 Z M 22.984375 0 "/></g></g></g><g fill="#000000" fill-opacity="1"><g transform="translate(93.288518, 187.647028)"><g><path d="M 2.546875 -21.90625 L 6.390625 -25.53125 L 19.5625 -25.53125 L 19.5625 -21.90625 Z M 23.90625 -3.625 L 19.96875 0 L 6.890625 0 L 6.890625 -3.625 Z M 20.078125 -4.140625 L 20.078125 -25.53125 L 23.90625 -21.703125 L 23.90625 -4.140625 Z M 6.390625 -12.203125 L 6.390625 0 L 2.546875 -3.828125 L 2.546875 -12.203125 Z M 2.546875 -12.71875 L 6.390625 -16.34375 L 19.5625 -16.34375 L 19.5625 -12.71875 Z M 2.546875 -12.71875 "/></g></g></g><g fill="#000000" fill-opacity="1"><g transform="translate(136.087221, 187.647028)"><g><path d="M 20.078125 -4.09375 L 20.078125 -38.3125 L 23.90625 -38.3125 L 23.90625 -4.09375 Z M 6.390625 -21.40625 L 6.390625 0 L 2.546875 -3.828125 L 2.546875 -21.40625 Z M 2.546875 -21.90625 L 6.390625 -25.53125 L 19.5625 -25.53125 L 19.5625 -21.90625 Z M 23.90625 -3.625 L 19.96875 0 L 6.890625 0 L 6.890625 -3.625 Z M 23.90625 -3.625 "/></g></g></g><g fill="#000000" fill-opacity="1"><g transform="translate(177.404887, 187.647028)"><g><path d="M 2.546875 -21.90625 L 6.484375 -25.53125 L 20.078125 -25.53125 L 20.078125 -21.90625 Z M 20.078125 -3.625 L 20.078125 0 L 6.890625 0 L 6.890625 -3.625 Z M 6.390625 -21.40625 L 6.390625 0 L 2.546875 -3.625 L 2.546875 -21.40625 Z M 24.421875 11.703125 L 20.484375 15.328125 L 6.390625 15.328125 L 2.765625 11.703125 Z M 20.53125 11.1875 L 20.578125 -25.53125 L 24.421875 -21.703125 L 24.421875 11.1875 Z M 20.53125 11.1875 "/></g></g></g><g fill="#000000" fill-opacity="1"><g transform="translate(219.233257, 187.647028)"><g><path d="M 23.90625 -3.625 L 19.96875 0 L 6.890625 0 L 6.890625 -3.625 Z M 2.546875 -21.90625 L 6.390625 -25.53125 L 19.5625 -25.53125 L 19.5625 -21.90625 Z M 6.390625 -21.40625 L 6.390625 0 L 2.546875 -3.828125 L 2.546875 -21.40625 Z M 20.078125 -14.296875 L 20.078125 -25.53125 L 23.90625 -21.703125 L 23.90625 -14.296875 Z M 23.90625 -13.796875 L 19.96875 -10.171875 L 6.890625 -10.171875 L 6.890625 -13.796875 Z M 23.90625 -13.796875 "/></g></g></g><g fill="#000000" fill-opacity="1"><g transform="translate(260.550934, 187.647028)"><g><path d="M 20.015625 -3.625 L 20.015625 0 L 12.3125 0 L 8.484375 -3.625 Z M 12.3125 -21.40625 L 12.3125 -4.140625 L 8.484375 -4.140625 L 8.484375 -21.40625 Z M 20.328125 -25.53125 L 20.328125 -21.90625 L 2.046875 -21.90625 L 2.046875 -25.53125 Z M 12.3125 -35.75 L 12.3125 -26.046875 L 8.484375 -26.046875 L 8.484375 -35.75 Z M 12.3125 -35.75 "/></g></g></g><g fill="#000000" fill-opacity="1"><g transform="translate(98.792048, 228.480367)"><g><path d="M 0.6875 -0.796875 L 2.21875 -0.796875 C 3.1875 -3.078125 4.15625 -5.347656 5.125 -7.609375 C 6.09375 -9.878906 7.054688 -12.160156 8.015625 -14.453125 C 8.972656 -12.160156 9.9375 -9.878906 10.90625 -7.609375 C 11.875 -5.347656 12.84375 -3.078125 13.8125 -0.796875 L 15.34375 -0.796875 L 15.34375 0 L 11.53125 0 L 11.53125 -0.796875 L 12.96875 -0.796875 C 12.601562 -1.648438 12.242188 -2.5 11.890625 -3.34375 C 11.535156 -4.195312 11.171875 -5.054688 10.796875 -5.921875 L 5.234375 -5.921875 C 4.867188 -5.054688 4.503906 -4.195312 4.140625 -3.34375 C 3.785156 -2.5 3.425781 -1.648438 3.0625 -0.796875 L 4.5 -0.796875 L 4.5 0 L 0.6875 0 Z M 8.203125 -12.0625 L 8.015625 -12.625 C 7.992188 -12.582031 7.960938 -12.484375 7.921875 -12.328125 C 7.890625 -12.242188 7.859375 -12.15625 7.828125 -12.0625 C 7.691406 -11.71875 7.535156 -11.332031 7.359375 -10.90625 C 7.179688 -10.476562 6.992188 -10.03125 6.796875 -9.5625 C 6.597656 -9.101562 6.394531 -8.628906 6.1875 -8.140625 C 5.988281 -7.648438 5.789062 -7.175781 5.59375 -6.71875 L 10.453125 -6.71875 Z M 8.203125 -12.0625 "/></g></g></g><g fill="#000000" fill-opacity="1"><g transform="translate(114.825849, 228.480367)"><g><path d="M 7.015625 -0.71875 C 6.671875 -0.445312 6.289062 -0.234375 5.875 -0.078125 C 5.46875 0.0664062 5.03125 0.140625 4.5625 0.140625 C 4.019531 0.140625 3.515625 0.0390625 3.046875 -0.15625 C 2.578125 -0.363281 2.164062 -0.640625 1.8125 -0.984375 C 1.46875 -1.328125 1.191406 -1.734375 0.984375 -2.203125 C 0.785156 -2.671875 0.6875 -3.175781 0.6875 -3.71875 C 0.6875 -4.238281 0.785156 -4.734375 0.984375 -5.203125 C 1.191406 -5.679688 1.46875 -6.09375 1.8125 -6.4375 C 2.164062 -6.78125 2.578125 -7.050781 3.046875 -7.25 C 3.515625 -7.457031 4.019531 -7.5625 4.5625 -7.5625 C 5.03125 -7.5625 5.472656 -7.484375 5.890625 -7.328125 C 6.316406 -7.179688 6.695312 -6.976562 7.03125 -6.71875 L 7.03125 -4.78125 L 6.28125 -4.78125 L 6.28125 -6.234375 C 6.03125 -6.410156 5.765625 -6.546875 5.484375 -6.640625 C 5.203125 -6.734375 4.894531 -6.78125 4.5625 -6.78125 C 4.125 -6.78125 3.71875 -6.695312 3.34375 -6.53125 C 2.976562 -6.375 2.660156 -6.15625 2.390625 -5.875 C 2.128906 -5.601562 1.914062 -5.28125 1.75 -4.90625 C 1.59375 -4.53125 1.515625 -4.132812 1.515625 -3.71875 C 1.515625 -3.289062 1.59375 -2.890625 1.75 -2.515625 C 1.914062 -2.148438 2.128906 -1.828125 2.390625 -1.546875 C 2.660156 -1.273438 2.976562 -1.0625 3.34375 -0.90625 C 3.71875 -0.75 4.125 -0.671875 4.5625 -0.671875 C 5.3125 -0.671875 5.957031 -0.890625 6.5 -1.328125 Z M 7.015625 -0.71875 "/></g></g></g><g fill="#000000" fill-opacity="1"><g transform="translate(122.546559, 228.480367)"><g><path d="M 7.015625 -0.71875 C 6.671875 -0.445312 6.289062 -0.234375 5.875 -0.078125 C 5.46875 0.0664062 5.03125 0.140625 4.5625 0.140625 C 4.019531 0.140625 3.515625 0.0390625 3.046875 -0.15625 C 2.578125 -0.363281 2.164062 -0.640625 1.8125 -0.984375 C 1.46875 -1.328125 1.191406 -1.734375 0.984375 -2.203125 C 0.785156 -2.671875 0.6875 -3.175781 0.6875 -3.71875 C 0.6875 -4.238281 0.785156 -4.734375 0.984375 -5.203125 C 1.191406 -5.679688 1.46875 -6.09375 1.8125 -6.4375 C 2.164062 -6.78125 2.578125 -7.050781 3.046875 -7.25 C 3.515625 -7.457031 4.019531 -7.5625 4.5625 -7.5625 C 5.03125 -7.5625 5.472656 -7.484375 5.890625 -7.328125 C 6.316406 -7.179688 6.695312 -6.976562 7.03125 -6.71875 L 7.03125 -4.78125 L 6.28125 -4.78125 L 6.28125 -6.234375 C 6.03125 -6.410156 5.765625 -6.546875 5.484375 -6.640625 C 5.203125 -6.734375 4.894531 -6.78125 4.5625 -6.78125 C 4.125 -6.78125 3.71875 -6.695312 3.34375 -6.53125 C 2.976562 -6.375 2.660156 -6.15625 2.390625 -5.875 C 2.128906 -5.601562 1.914062 -5.28125 1.75 -4.90625 C 1.59375 -4.53125 1.515625 -4.132812 1.515625 -3.71875 C 1.515625 -3.289062 1.59375 -2.890625 1.75 -2.515625 C 1.914062 -2.148438 2.128906 -1.828125 2.390625 -1.546875 C 2.660156 -1.273438 2.976562 -1.0625 3.34375 -0.90625 C 3.71875 -0.75 4.125 -0.671875 4.5625 -0.671875 C 5.3125 -0.671875 5.957031 -0.890625 6.5 -1.328125 Z M 7.015625 -0.71875 "/></g></g></g><g fill="#000000" fill-opacity="1"><g transform="translate(130.267269, 228.480367)"><g><path d="M 4.5625 -6.78125 C 4.070312 -6.78125 3.625 -6.675781 3.21875 -6.46875 C 2.820312 -6.257812 2.484375 -5.988281 2.203125 -5.65625 C 1.929688 -5.320312 1.738281 -4.929688 1.625 -4.484375 C 1.519531 -4.046875 1.507812 -3.597656 1.59375 -3.140625 C 2.476562 -3.492188 3.359375 -3.84375 4.234375 -4.1875 C 5.117188 -4.539062 6.007812 -4.894531 6.90625 -5.25 C 6.6875 -5.695312 6.363281 -6.0625 5.9375 -6.34375 C 5.519531 -6.632812 5.0625 -6.78125 4.5625 -6.78125 Z M 7.953125 -4.796875 C 6.929688 -4.390625 5.910156 -3.984375 4.890625 -3.578125 C 3.878906 -3.179688 2.863281 -2.78125 1.84375 -2.375 C 2.0625 -1.875 2.414062 -1.460938 2.90625 -1.140625 C 3.394531 -0.828125 3.945312 -0.671875 4.5625 -0.671875 C 4.96875 -0.671875 5.347656 -0.742188 5.703125 -0.890625 C 6.054688 -1.035156 6.367188 -1.238281 6.640625 -1.5 C 6.734375 -1.394531 6.816406 -1.289062 6.890625 -1.1875 C 6.972656 -1.09375 7.0625 -0.992188 7.15625 -0.890625 C 6.8125 -0.578125 6.421875 -0.328125 5.984375 -0.140625 C 5.546875 0.046875 5.070312 0.140625 4.5625 0.140625 C 4.019531 0.140625 3.515625 0.0390625 3.046875 -0.15625 C 2.578125 -0.363281 2.164062 -0.640625 1.8125 -0.984375 C 1.46875 -1.328125 1.191406 -1.734375 0.984375 -2.203125 C 0.785156 -2.671875 0.6875 -3.175781 0.6875 -3.71875 C 0.6875 -4.238281 0.785156 -4.734375 0.984375 -5.203125 C 1.191406 -5.679688 1.46875 -6.09375 1.8125 -6.4375 C 2.164062 -6.78125 2.578125 -7.050781 3.046875 -7.25 C 3.515625 -7.457031 4.019531 -7.5625 4.5625 -7.5625 C 4.957031 -7.5625 5.332031 -7.492188 5.6875 -7.359375 C 6.039062 -7.222656 6.363281 -7.03125 6.65625 -6.78125 C 6.957031 -6.539062 7.21875 -6.25 7.4375 -5.90625 C 7.664062 -5.570312 7.835938 -5.203125 7.953125 -4.796875 Z M 7.953125 -4.796875 "/></g></g></g><g fill="#000000" fill-opacity="1"><g transform="translate(138.975284, 228.480367)"><g><path d="M 1.78125 -2.03125 L 1.78125 -1.03125 C 2.019531 -0.851562 2.28125 -0.742188 2.5625 -0.703125 C 2.84375 -0.671875 3.117188 -0.65625 3.390625 -0.65625 C 3.515625 -0.65625 3.660156 -0.675781 3.828125 -0.71875 C 4.003906 -0.769531 4.171875 -0.847656 4.328125 -0.953125 C 4.484375 -1.066406 4.617188 -1.207031 4.734375 -1.375 C 4.859375 -1.550781 4.921875 -1.765625 4.921875 -2.015625 C 4.921875 -2.359375 4.832031 -2.617188 4.65625 -2.796875 C 4.488281 -2.984375 4.269531 -3.132812 4 -3.25 C 3.726562 -3.363281 3.429688 -3.460938 3.109375 -3.546875 C 2.796875 -3.628906 2.503906 -3.742188 2.234375 -3.890625 C 1.972656 -4.035156 1.75 -4.222656 1.5625 -4.453125 C 1.375 -4.691406 1.28125 -5.03125 1.28125 -5.46875 C 1.28125 -5.8125 1.34375 -6.109375 1.46875 -6.359375 C 1.601562 -6.617188 1.773438 -6.832031 1.984375 -7 C 2.191406 -7.175781 2.421875 -7.304688 2.671875 -7.390625 C 2.929688 -7.484375 3.179688 -7.53125 3.421875 -7.53125 C 3.472656 -7.53125 3.578125 -7.519531 3.734375 -7.5 C 3.898438 -7.488281 4.085938 -7.457031 4.296875 -7.40625 C 4.515625 -7.363281 4.722656 -7.296875 4.921875 -7.203125 C 5.128906 -7.117188 5.304688 -6.992188 5.453125 -6.828125 L 5.453125 -5.375 L 4.703125 -5.375 L 4.703125 -6.421875 C 4.609375 -6.492188 4.492188 -6.550781 4.359375 -6.59375 C 4.234375 -6.632812 4.109375 -6.664062 3.984375 -6.6875 C 3.859375 -6.707031 3.742188 -6.71875 3.640625 -6.71875 C 3.546875 -6.71875 3.476562 -6.71875 3.4375 -6.71875 C 3.28125 -6.71875 3.117188 -6.691406 2.953125 -6.640625 C 2.796875 -6.597656 2.648438 -6.523438 2.515625 -6.421875 C 2.390625 -6.328125 2.289062 -6.203125 2.21875 -6.046875 C 2.144531 -5.898438 2.109375 -5.710938 2.109375 -5.484375 C 2.109375 -5.203125 2.203125 -4.976562 2.390625 -4.8125 C 2.578125 -4.644531 2.800781 -4.503906 3.0625 -4.390625 C 3.332031 -4.273438 3.625 -4.171875 3.9375 -4.078125 C 4.25 -3.984375 4.539062 -3.851562 4.8125 -3.6875 C 5.082031 -3.53125 5.304688 -3.328125 5.484375 -3.078125 C 5.660156 -2.828125 5.75 -2.492188 5.75 -2.078125 C 5.75 -1.847656 5.703125 -1.601562 5.609375 -1.34375 C 5.523438 -1.09375 5.390625 -0.851562 5.203125 -0.625 C 5.023438 -0.40625 4.78125 -0.21875 4.46875 -0.0625 C 4.164062 0.0820312 3.796875 0.15625 3.359375 0.15625 C 3.222656 0.15625 3.050781 0.144531 2.84375 0.125 C 2.644531 0.101562 2.429688 0.0664062 2.203125 0.015625 C 1.984375 -0.0351562 1.769531 -0.101562 1.5625 -0.1875 C 1.351562 -0.28125 1.175781 -0.410156 1.03125 -0.578125 L 1.03125 -2.03125 Z M 1.78125 -2.03125 "/></g></g></g><g fill="#000000" fill-opacity="1"><g transform="translate(145.333518, 228.480367)"><g><path d="M 1.78125 -2.03125 L 1.78125 -1.03125 C 2.019531 -0.851562 2.28125 -0.742188 2.5625 -0.703125 C 2.84375 -0.671875 3.117188 -0.65625 3.390625 -0.65625 C 3.515625 -0.65625 3.660156 -0.675781 3.828125 -0.71875 C 4.003906 -0.769531 4.171875 -0.847656 4.328125 -0.953125 C 4.484375 -1.066406 4.617188 -1.207031 4.734375 -1.375 C 4.859375 -1.550781 4.921875 -1.765625 4.921875 -2.015625 C 4.921875 -2.359375 4.832031 -2.617188 4.65625 -2.796875 C 4.488281 -2.984375 4.269531 -3.132812 4 -3.25 C 3.726562 -3.363281 3.429688 -3.460938 3.109375 -3.546875 C 2.796875 -3.628906 2.503906 -3.742188 2.234375 -3.890625 C 1.972656 -4.035156 1.75 -4.222656 1.5625 -4.453125 C 1.375 -4.691406 1.28125 -5.03125 1.28125 -5.46875 C 1.28125 -5.8125 1.34375 -6.109375 1.46875 -6.359375 C 1.601562 -6.617188 1.773438 -6.832031 1.984375 -7 C 2.191406 -7.175781 2.421875 -7.304688 2.671875 -7.390625 C 2.929688 -7.484375 3.179688 -7.53125 3.421875 -7.53125 C 3.472656 -7.53125 3.578125 -7.519531 3.734375 -7.5 C 3.898438 -7.488281 4.085938 -7.457031 4.296875 -7.40625 C 4.515625 -7.363281 4.722656 -7.296875 4.921875 -7.203125 C 5.128906 -7.117188 5.304688 -6.992188 5.453125 -6.828125 L 5.453125 -5.375 L 4.703125 -5.375 L 4.703125 -6.421875 C 4.609375 -6.492188 4.492188 -6.550781 4.359375 -6.59375 C 4.234375 -6.632812 4.109375 -6.664062 3.984375 -6.6875 C 3.859375 -6.707031 3.742188 -6.71875 3.640625 -6.71875 C 3.546875 -6.71875 3.476562 -6.71875 3.4375 -6.71875 C 3.28125 -6.71875 3.117188 -6.691406 2.953125 -6.640625 C 2.796875 -6.597656 2.648438 -6.523438 2.515625 -6.421875 C 2.390625 -6.328125 2.289062 -6.203125 2.21875 -6.046875 C 2.144531 -5.898438 2.109375 -5.710938 2.109375 -5.484375 C 2.109375 -5.203125 2.203125 -4.976562 2.390625 -4.8125 C 2.578125 -4.644531 2.800781 -4.503906 3.0625 -4.390625 C 3.332031 -4.273438 3.625 -4.171875 3.9375 -4.078125 C 4.25 -3.984375 4.539062 -3.851562 4.8125 -3.6875 C 5.082031 -3.53125 5.304688 -3.328125 5.484375 -3.078125 C 5.660156 -2.828125 5.75 -2.492188 5.75 -2.078125 C 5.75 -1.847656 5.703125 -1.601562 5.609375 -1.34375 C 5.523438 -1.09375 5.390625 -0.851562 5.203125 -0.625 C 5.023438 -0.40625 4.78125 -0.21875 4.46875 -0.0625 C 4.164062 0.0820312 3.796875 0.15625 3.359375 0.15625 C 3.222656 0.15625 3.050781 0.144531 2.84375 0.125 C 2.644531 0.101562 2.429688 0.0664062 2.203125 0.015625 C 1.984375 -0.0351562 1.769531 -0.101562 1.5625 -0.1875 C 1.351562 -0.28125 1.175781 -0.410156 1.03125 -0.578125 L 1.03125 -2.03125 Z M 1.78125 -2.03125 "/></g></g></g><g fill="#000000" fill-opacity="1"><g transform="translate(151.691752, 228.480367)"><g><path d="M 0.71875 -3.71875 C 0.71875 -4.238281 0.816406 -4.734375 1.015625 -5.203125 C 1.222656 -5.679688 1.5 -6.09375 1.84375 -6.4375 C 2.195312 -6.789062 2.601562 -7.066406 3.0625 -7.265625 C 3.53125 -7.472656 4.035156 -7.578125 4.578125 -7.578125 C 5.117188 -7.578125 5.625 -7.472656 6.09375 -7.265625 C 6.570312 -7.066406 6.988281 -6.789062 7.34375 -6.4375 C 7.695312 -6.09375 7.976562 -5.679688 8.1875 -5.203125 C 8.394531 -4.734375 8.5 -4.238281 8.5 -3.71875 C 8.5 -3.175781 8.394531 -2.671875 8.1875 -2.203125 C 7.976562 -1.734375 7.695312 -1.328125 7.34375 -0.984375 C 6.988281 -0.640625 6.570312 -0.363281 6.09375 -0.15625 C 5.625 0.0390625 5.117188 0.140625 4.578125 0.140625 C 4.035156 0.140625 3.53125 0.0390625 3.0625 -0.15625 C 2.601562 -0.363281 2.195312 -0.640625 1.84375 -0.984375 C 1.5 -1.328125 1.222656 -1.734375 1.015625 -2.203125 C 0.816406 -2.671875 0.71875 -3.175781 0.71875 -3.71875 Z M 1.515625 -3.71875 C 1.515625 -3.289062 1.59375 -2.890625 1.75 -2.515625 C 1.914062 -2.148438 2.132812 -1.828125 2.40625 -1.546875 C 2.6875 -1.273438 3.007812 -1.0625 3.375 -0.90625 C 3.75 -0.75 4.144531 -0.671875 4.5625 -0.671875 C 4.976562 -0.671875 5.375 -0.75 5.75 -0.90625 C 6.125 -1.0625 6.453125 -1.273438 6.734375 -1.546875 C 7.015625 -1.828125 7.234375 -2.148438 7.390625 -2.515625 C 7.546875 -2.890625 7.625 -3.289062 7.625 -3.71875 C 7.625 -4.132812 7.546875 -4.523438 7.390625 -4.890625 C 7.234375 -5.265625 7.015625 -5.585938 6.734375 -5.859375 C 6.453125 -6.140625 6.125 -6.363281 5.75 -6.53125 C 5.375 -6.695312 4.976562 -6.78125 4.5625 -6.78125 C 4.144531 -6.78125 3.75 -6.695312 3.375 -6.53125 C 3.007812 -6.363281 2.6875 -6.140625 2.40625 -5.859375 C 2.132812 -5.585938 1.914062 -5.265625 1.75 -4.890625 C 1.59375 -4.523438 1.515625 -4.132812 1.515625 -3.71875 Z M 1.515625 -3.71875 "/></g></g></g><g fill="#000000" fill-opacity="1"><g transform="translate(160.873667, 228.480367)"><g><path d="M 0.6875 -0.796875 L 2.234375 -0.796875 L 2.234375 -6.609375 L 0.8125 -6.609375 L 0.8125 -7.40625 L 2.90625 -7.40625 L 2.921875 -6.71875 C 2.929688 -6.488281 2.941406 -6.28125 2.953125 -6.09375 C 2.972656 -5.914062 2.984375 -5.710938 2.984375 -5.484375 C 3.285156 -6.128906 3.726562 -6.632812 4.3125 -7 C 4.894531 -7.363281 5.492188 -7.550781 6.109375 -7.5625 L 6.046875 -6.75 C 5.617188 -6.738281 5.222656 -6.660156 4.859375 -6.515625 C 4.503906 -6.378906 4.191406 -6.191406 3.921875 -5.953125 C 3.648438 -5.722656 3.4375 -5.441406 3.28125 -5.109375 C 3.125 -4.785156 3.046875 -4.429688 3.046875 -4.046875 L 3.046875 -0.796875 L 4.5 -0.796875 L 4.5 0 L 0.6875 0 Z M 0.6875 -0.796875 "/></g></g></g><g fill="#000000" fill-opacity="1"><g transform="translate(167.666319, 228.480367)"><g><path d="M 0.6875 -0.796875 L 2.21875 -0.796875 L 2.21875 -6.609375 L 0.6875 -6.609375 L 0.6875 -7.40625 L 3.046875 -7.40625 L 3.046875 -0.796875 L 4.5 -0.796875 L 4.5 0 L 0.6875 0 Z M 2 -10.03125 C 2 -10.21875 2.0625 -10.375 2.1875 -10.5 C 2.320312 -10.625 2.472656 -10.6875 2.640625 -10.6875 C 2.804688 -10.6875 2.953125 -10.625 3.078125 -10.5 C 3.210938 -10.375 3.28125 -10.21875 3.28125 -10.03125 C 3.28125 -9.84375 3.210938 -9.6875 3.078125 -9.5625 C 2.953125 -9.4375 2.804688 -9.375 2.640625 -9.375 C 2.472656 -9.375 2.320312 -9.4375 2.1875 -9.5625 C 2.0625 -9.6875 2 -9.84375 2 -10.03125 Z M 2 -10.03125 "/></g></g></g><g fill="#000000" fill-opacity="1"><g transform="translate(172.859533, 228.480367)"><g><path d="M 4.5625 -6.78125 C 4.070312 -6.78125 3.625 -6.675781 3.21875 -6.46875 C 2.820312 -6.257812 2.484375 -5.988281 2.203125 -5.65625 C 1.929688 -5.320312 1.738281 -4.929688 1.625 -4.484375 C 1.519531 -4.046875 1.507812 -3.597656 1.59375 -3.140625 C 2.476562 -3.492188 3.359375 -3.84375 4.234375 -4.1875 C 5.117188 -4.539062 6.007812 -4.894531 6.90625 -5.25 C 6.6875 -5.695312 6.363281 -6.0625 5.9375 -6.34375 C 5.519531 -6.632812 5.0625 -6.78125 4.5625 -6.78125 Z M 7.953125 -4.796875 C 6.929688 -4.390625 5.910156 -3.984375 4.890625 -3.578125 C 3.878906 -3.179688 2.863281 -2.78125 1.84375 -2.375 C 2.0625 -1.875 2.414062 -1.460938 2.90625 -1.140625 C 3.394531 -0.828125 3.945312 -0.671875 4.5625 -0.671875 C 4.96875 -0.671875 5.347656 -0.742188 5.703125 -0.890625 C 6.054688 -1.035156 6.367188 -1.238281 6.640625 -1.5 C 6.734375 -1.394531 6.816406 -1.289062 6.890625 -1.1875 C 6.972656 -1.09375 7.0625 -0.992188 7.15625 -0.890625 C 6.8125 -0.578125 6.421875 -0.328125 5.984375 -0.140625 C 5.546875 0.046875 5.070312 0.140625 4.5625 0.140625 C 4.019531 0.140625 3.515625 0.0390625 3.046875 -0.15625 C 2.578125 -0.363281 2.164062 -0.640625 1.8125 -0.984375 C 1.46875 -1.328125 1.191406 -1.734375 0.984375 -2.203125 C 0.785156 -2.671875 0.6875 -3.175781 0.6875 -3.71875 C 0.6875 -4.238281 0.785156 -4.734375 0.984375 -5.203125 C 1.191406 -5.679688 1.46875 -6.09375 1.8125 -6.4375 C 2.164062 -6.78125 2.578125 -7.050781 3.046875 -7.25 C 3.515625 -7.457031 4.019531 -7.5625 4.5625 -7.5625 C 4.957031 -7.5625 5.332031 -7.492188 5.6875 -7.359375 C 6.039062 -7.222656 6.363281 -7.03125 6.65625 -6.78125 C 6.957031 -6.539062 7.21875 -6.25 7.4375 -5.90625 C 7.664062 -5.570312 7.835938 -5.203125 7.953125 -4.796875 Z M 7.953125 -4.796875 "/></g></g></g><g fill="#000000" fill-opacity="1"><g transform="translate(181.567548, 228.480367)"><g><path d="M 1.78125 -2.03125 L 1.78125 -1.03125 C 2.019531 -0.851562 2.28125 -0.742188 2.5625 -0.703125 C 2.84375 -0.671875 3.117188 -0.65625 3.390625 -0.65625 C 3.515625 -0.65625 3.660156 -0.675781 3.828125 -0.71875 C 4.003906 -0.769531 4.171875 -0.847656 4.328125 -0.953125 C 4.484375 -1.066406 4.617188 -1.207031 4.734375 -1.375 C 4.859375 -1.550781 4.921875 -1.765625 4.921875 -2.015625 C 4.921875 -2.359375 4.832031 -2.617188 4.65625 -2.796875 C 4.488281 -2.984375 4.269531 -3.132812 4 -3.25 C 3.726562 -3.363281 3.429688 -3.460938 3.109375 -3.546875 C 2.796875 -3.628906 2.503906 -3.742188 2.234375 -3.890625 C 1.972656 -4.035156 1.75 -4.222656 1.5625 -4.453125 C 1.375 -4.691406 1.28125 -5.03125 1.28125 -5.46875 C 1.28125 -5.8125 1.34375 -6.109375 1.46875 -6.359375 C 1.601562 -6.617188 1.773438 -6.832031 1.984375 -7 C 2.191406 -7.175781 2.421875 -7.304688 2.671875 -7.390625 C 2.929688 -7.484375 3.179688 -7.53125 3.421875 -7.53125 C 3.472656 -7.53125 3.578125 -7.519531 3.734375 -7.5 C 3.898438 -7.488281 4.085938 -7.457031 4.296875 -7.40625 C 4.515625 -7.363281 4.722656 -7.296875 4.921875 -7.203125 C 5.128906 -7.117188 5.304688 -6.992188 5.453125 -6.828125 L 5.453125 -5.375 L 4.703125 -5.375 L 4.703125 -6.421875 C 4.609375 -6.492188 4.492188 -6.550781 4.359375 -6.59375 C 4.234375 -6.632812 4.109375 -6.664062 3.984375 -6.6875 C 3.859375 -6.707031 3.742188 -6.71875 3.640625 -6.71875 C 3.546875 -6.71875 3.476562 -6.71875 3.4375 -6.71875 C 3.28125 -6.71875 3.117188 -6.691406 2.953125 -6.640625 C 2.796875 -6.597656 2.648438 -6.523438 2.515625 -6.421875 C 2.390625 -6.328125 2.289062 -6.203125 2.21875 -6.046875 C 2.144531 -5.898438 2.109375 -5.710938 2.109375 -5.484375 C 2.109375 -5.203125 2.203125 -4.976562 2.390625 -4.8125 C 2.578125 -4.644531 2.800781 -4.503906 3.0625 -4.390625 C 3.332031 -4.273438 3.625 -4.171875 3.9375 -4.078125 C 4.25 -3.984375 4.539062 -3.851562 4.8125 -3.6875 C 5.082031 -3.53125 5.304688 -3.328125 5.484375 -3.078125 C 5.660156 -2.828125 5.75 -2.492188 5.75 -2.078125 C 5.75 -1.847656 5.703125 -1.601562 5.609375 -1.34375 C 5.523438 -1.09375 5.390625 -0.851562 5.203125 -0.625 C 5.023438 -0.40625 4.78125 -0.21875 4.46875 -0.0625 C 4.164062 0.0820312 3.796875 0.15625 3.359375 0.15625 C 3.222656 0.15625 3.050781 0.144531 2.84375 0.125 C 2.644531 0.101562 2.429688 0.0664062 2.203125 0.015625 C 1.984375 -0.0351562 1.769531 -0.101562 1.5625 -0.1875 C 1.351562 -0.28125 1.175781 -0.410156 1.03125 -0.578125 L 1.03125 -2.03125 Z M 1.78125 -2.03125 "/></g></g></g><g fill="#000000" fill-opacity="1"><g transform="translate(187.925782, 228.480367)"><g/></g></g><g fill="#000000" fill-opacity="1"><g transform="translate(193.849598, 228.480367)"><g><path d="M 1.78125 -2.03125 L 1.78125 -1.03125 C 2.019531 -0.851562 2.28125 -0.742188 2.5625 -0.703125 C 2.84375 -0.671875 3.117188 -0.65625 3.390625 -0.65625 C 3.515625 -0.65625 3.660156 -0.675781 3.828125 -0.71875 C 4.003906 -0.769531 4.171875 -0.847656 4.328125 -0.953125 C 4.484375 -1.066406 4.617188 -1.207031 4.734375 -1.375 C 4.859375 -1.550781 4.921875 -1.765625 4.921875 -2.015625 C 4.921875 -2.359375 4.832031 -2.617188 4.65625 -2.796875 C 4.488281 -2.984375 4.269531 -3.132812 4 -3.25 C 3.726562 -3.363281 3.429688 -3.460938 3.109375 -3.546875 C 2.796875 -3.628906 2.503906 -3.742188 2.234375 -3.890625 C 1.972656 -4.035156 1.75 -4.222656 1.5625 -4.453125 C 1.375 -4.691406 1.28125 -5.03125 1.28125 -5.46875 C 1.28125 -5.8125 1.34375 -6.109375 1.46875 -6.359375 C 1.601562 -6.617188 1.773438 -6.832031 1.984375 -7 C 2.191406 -7.175781 2.421875 -7.304688 2.671875 -7.390625 C 2.929688 -7.484375 3.179688 -7.53125 3.421875 -7.53125 C 3.472656 -7.53125 3.578125 -7.519531 3.734375 -7.5 C 3.898438 -7.488281 4.085938 -7.457031 4.296875 -7.40625 C 4.515625 -7.363281 4.722656 -7.296875 4.921875 -7.203125 C 5.128906 -7.117188 5.304688 -6.992188 5.453125 -6.828125 L 5.453125 -5.375 L 4.703125 -5.375 L 4.703125 -6.421875 C 4.609375 -6.492188 4.492188 -6.550781 4.359375 -6.59375 C 4.234375 -6.632812 4.109375 -6.664062 3.984375 -6.6875 C 3.859375 -6.707031 3.742188 -6.71875 3.640625 -6.71875 C 3.546875 -6.71875 3.476562 -6.71875 3.4375 -6.71875 C 3.28125 -6.71875 3.117188 -6.691406 2.953125 -6.640625 C 2.796875 -6.597656 2.648438 -6.523438 2.515625 -6.421875 C 2.390625 -6.328125 2.289062 -6.203125 2.21875 -6.046875 C 2.144531 -5.898438 2.109375 -5.710938 2.109375 -5.484375 C 2.109375 -5.203125 2.203125 -4.976562 2.390625 -4.8125 C 2.578125 -4.644531 2.800781 -4.503906 3.0625 -4.390625 C 3.332031 -4.273438 3.625 -4.171875 3.9375 -4.078125 C 4.25 -3.984375 4.539062 -3.851562 4.8125 -3.6875 C 5.082031 -3.53125 5.304688 -3.328125 5.484375 -3.078125 C 5.660156 -2.828125 5.75 -2.492188 5.75 -2.078125 C 5.75 -1.847656 5.703125 -1.601562 5.609375 -1.34375 C 5.523438 -1.09375 5.390625 -0.851562 5.203125 -0.625 C 5.023438 -0.40625 4.78125 -0.21875 4.46875 -0.0625 C 4.164062 0.0820312 3.796875 0.15625 3.359375 0.15625 C 3.222656 0.15625 3.050781 0.144531 2.84375 0.125 C 2.644531 0.101562 2.429688 0.0664062 2.203125 0.015625 C 1.984375 -0.0351562 1.769531 -0.101562 1.5625 -0.1875 C 1.351562 -0.28125 1.175781 -0.410156 1.03125 -0.578125 L 1.03125 -2.03125 Z M 1.78125 -2.03125 "/></g></g></g><g fill="#000000" fill-opacity="1"><g transform="translate(200.207832, 228.480367)"><g><path d="M 2.40625 -12.21875 L 3.234375 -12.21875 L 3.234375 -7.40625 L 5.515625 -7.40625 L 5.515625 -6.59375 L 3.234375 -6.59375 L 3.234375 -0.796875 L 4.859375 -0.796875 L 4.859375 0 L 2.40625 0 L 2.40625 -6.59375 L 0.6875 -6.59375 L 0.6875 -7.40625 L 2.40625 -7.40625 Z M 2.40625 -12.21875 "/></g></g></g><g fill="#000000" fill-opacity="1"><g transform="translate(206.408092, 228.480367)"><g><path d="M 0.71875 -3.71875 C 0.71875 -4.238281 0.816406 -4.734375 1.015625 -5.203125 C 1.222656 -5.679688 1.5 -6.09375 1.84375 -6.4375 C 2.195312 -6.789062 2.601562 -7.066406 3.0625 -7.265625 C 3.53125 -7.472656 4.035156 -7.578125 4.578125 -7.578125 C 5.117188 -7.578125 5.625 -7.472656 6.09375 -7.265625 C 6.570312 -7.066406 6.988281 -6.789062 7.34375 -6.4375 C 7.695312 -6.09375 7.976562 -5.679688 8.1875 -5.203125 C 8.394531 -4.734375 8.5 -4.238281 8.5 -3.71875 C 8.5 -3.175781 8.394531 -2.671875 8.1875 -2.203125 C 7.976562 -1.734375 7.695312 -1.328125 7.34375 -0.984375 C 6.988281 -0.640625 6.570312 -0.363281 6.09375 -0.15625 C 5.625 0.0390625 5.117188 0.140625 4.578125 0.140625 C 4.035156 0.140625 3.53125 0.0390625 3.0625 -0.15625 C 2.601562 -0.363281 2.195312 -0.640625 1.84375 -0.984375 C 1.5 -1.328125 1.222656 -1.734375 1.015625 -2.203125 C 0.816406 -2.671875 0.71875 -3.175781 0.71875 -3.71875 Z M 1.515625 -3.71875 C 1.515625 -3.289062 1.59375 -2.890625 1.75 -2.515625 C 1.914062 -2.148438 2.132812 -1.828125 2.40625 -1.546875 C 2.6875 -1.273438 3.007812 -1.0625 3.375 -0.90625 C 3.75 -0.75 4.144531 -0.671875 4.5625 -0.671875 C 4.976562 -0.671875 5.375 -0.75 5.75 -0.90625 C 6.125 -1.0625 6.453125 -1.273438 6.734375 -1.546875 C 7.015625 -1.828125 7.234375 -2.148438 7.390625 -2.515625 C 7.546875 -2.890625 7.625 -3.289062 7.625 -3.71875 C 7.625 -4.132812 7.546875 -4.523438 7.390625 -4.890625 C 7.234375 -5.265625 7.015625 -5.585938 6.734375 -5.859375 C 6.453125 -6.140625 6.125 -6.363281 5.75 -6.53125 C 5.375 -6.695312 4.976562 -6.78125 4.5625 -6.78125 C 4.144531 -6.78125 3.75 -6.695312 3.375 -6.53125 C 3.007812 -6.363281 2.6875 -6.140625 2.40625 -5.859375 C 2.132812 -5.585938 1.914062 -5.265625 1.75 -4.890625 C 1.59375 -4.523438 1.515625 -4.132812 1.515625 -3.71875 Z M 1.515625 -3.71875 "/></g></g></g><g fill="#000000" fill-opacity="1"><g transform="translate(215.590006, 228.480367)"><g><path d="M 0.6875 -0.796875 L 2.234375 -0.796875 L 2.234375 -6.609375 L 0.8125 -6.609375 L 0.8125 -7.40625 L 2.90625 -7.40625 L 2.921875 -6.71875 C 2.929688 -6.488281 2.941406 -6.28125 2.953125 -6.09375 C 2.972656 -5.914062 2.984375 -5.710938 2.984375 -5.484375 C 3.285156 -6.128906 3.726562 -6.632812 4.3125 -7 C 4.894531 -7.363281 5.492188 -7.550781 6.109375 -7.5625 L 6.046875 -6.75 C 5.617188 -6.738281 5.222656 -6.660156 4.859375 -6.515625 C 4.503906 -6.378906 4.191406 -6.191406 3.921875 -5.953125 C 3.648438 -5.722656 3.4375 -5.441406 3.28125 -5.109375 C 3.125 -4.785156 3.046875 -4.429688 3.046875 -4.046875 L 3.046875 -0.796875 L 4.5 -0.796875 L 4.5 0 L 0.6875 0 Z M 0.6875 -0.796875 "/></g></g></g><g fill="#000000" fill-opacity="1"><g transform="translate(222.382658, 228.480367)"><g><path d="M 4.5625 -6.78125 C 4.070312 -6.78125 3.625 -6.675781 3.21875 -6.46875 C 2.820312 -6.257812 2.484375 -5.988281 2.203125 -5.65625 C 1.929688 -5.320312 1.738281 -4.929688 1.625 -4.484375 C 1.519531 -4.046875 1.507812 -3.597656 1.59375 -3.140625 C 2.476562 -3.492188 3.359375 -3.84375 4.234375 -4.1875 C 5.117188 -4.539062 6.007812 -4.894531 6.90625 -5.25 C 6.6875 -5.695312 6.363281 -6.0625 5.9375 -6.34375 C 5.519531 -6.632812 5.0625 -6.78125 4.5625 -6.78125 Z M 7.953125 -4.796875 C 6.929688 -4.390625 5.910156 -3.984375 4.890625 -3.578125 C 3.878906 -3.179688 2.863281 -2.78125 1.84375 -2.375 C 2.0625 -1.875 2.414062 -1.460938 2.90625 -1.140625 C 3.394531 -0.828125 3.945312 -0.671875 4.5625 -0.671875 C 4.96875 -0.671875 5.347656 -0.742188 5.703125 -0.890625 C 6.054688 -1.035156 6.367188 -1.238281 6.640625 -1.5 C 6.734375 -1.394531 6.816406 -1.289062 6.890625 -1.1875 C 6.972656 -1.09375 7.0625 -0.992188 7.15625 -0.890625 C 6.8125 -0.578125 6.421875 -0.328125 5.984375 -0.140625 C 5.546875 0.046875 5.070312 0.140625 4.5625 0.140625 C 4.019531 0.140625 3.515625 0.0390625 3.046875 -0.15625 C 2.578125 -0.363281 2.164062 -0.640625 1.8125 -0.984375 C 1.46875 -1.328125 1.191406 -1.734375 0.984375 -2.203125 C 0.785156 -2.671875 0.6875 -3.175781 0.6875 -3.71875 C 0.6875 -4.238281 0.785156 -4.734375 0.984375 -5.203125 C 1.191406 -5.679688 1.46875 -6.09375 1.8125 -6.4375 C 2.164062 -6.78125 2.578125 -7.050781 3.046875 -7.25 C 3.515625 -7.457031 4.019531 -7.5625 4.5625 -7.5625 C 4.957031 -7.5625 5.332031 -7.492188 5.6875 -7.359375 C 6.039062 -7.222656 6.363281 -7.03125 6.65625 -6.78125 C 6.957031 -6.539062 7.21875 -6.25 7.4375 -5.90625 C 7.664062 -5.570312 7.835938 -5.203125 7.953125 -4.796875 Z M 7.953125 -4.796875 "/></g></g></g><g fill="#000000" fill-opacity="1"><g transform="translate(94.253758, 143.154689)"><g><path d="M 7.609375 -2.09375 L 3.0625 -2.09375 L 2.203125 0 L -0.125 0 L 4.234375 -9.796875 L 6.484375 -9.796875 L 10.859375 0 L 8.484375 0 Z M 6.90625 -3.828125 L 5.34375 -7.578125 L 3.796875 -3.828125 Z M 6.90625 -3.828125 "/></g></g></g><g fill="#000000" fill-opacity="1"><g transform="translate(109.045784, 143.154689)"><g><path d="M 7.78125 -5.046875 L 9.859375 -5.046875 L 9.859375 -1.078125 C 9.328125 -0.671875 8.707031 -0.359375 8 -0.140625 C 7.300781 0.0664062 6.597656 0.171875 5.890625 0.171875 C 4.878906 0.171875 3.96875 -0.046875 3.15625 -0.484375 C 2.34375 -0.921875 1.703125 -1.519531 1.234375 -2.28125 C 0.773438 -3.050781 0.546875 -3.925781 0.546875 -4.90625 C 0.546875 -5.875 0.773438 -6.742188 1.234375 -7.515625 C 1.703125 -8.285156 2.34375 -8.882812 3.15625 -9.3125 C 3.976562 -9.75 4.90625 -9.96875 5.9375 -9.96875 C 6.789062 -9.96875 7.566406 -9.820312 8.265625 -9.53125 C 8.972656 -9.238281 9.5625 -8.820312 10.03125 -8.28125 L 8.578125 -6.9375 C 7.878906 -7.664062 7.035156 -8.03125 6.046875 -8.03125 C 5.421875 -8.03125 4.863281 -7.898438 4.375 -7.640625 C 3.894531 -7.378906 3.519531 -7.007812 3.25 -6.53125 C 2.976562 -6.0625 2.84375 -5.519531 2.84375 -4.90625 C 2.84375 -4.289062 2.976562 -3.742188 3.25 -3.265625 C 3.519531 -2.796875 3.894531 -2.425781 4.375 -2.15625 C 4.851562 -1.894531 5.398438 -1.765625 6.015625 -1.765625 C 6.671875 -1.765625 7.257812 -1.90625 7.78125 -2.1875 Z M 7.78125 -5.046875 "/></g></g></g><g fill="#000000" fill-opacity="1"><g transform="translate(123.907767, 143.154689)"><g/></g></g><g fill="#000000" fill-opacity="1"><g transform="translate(131.941565, 143.154689)"><g><path d="M 5.515625 0.171875 C 4.117188 0.171875 3.03125 -0.210938 2.25 -0.984375 C 1.46875 -1.765625 1.078125 -2.875 1.078125 -4.3125 L 1.078125 -9.796875 L 3.34375 -9.796875 L 3.34375 -4.390625 C 3.34375 -2.640625 4.070312 -1.765625 5.53125 -1.765625 C 6.238281 -1.765625 6.78125 -1.972656 7.15625 -2.390625 C 7.53125 -2.816406 7.71875 -3.484375 7.71875 -4.390625 L 7.71875 -9.796875 L 9.953125 -9.796875 L 9.953125 -4.3125 C 9.953125 -2.875 9.5625 -1.765625 8.78125 -0.984375 C 8 -0.210938 6.910156 0.171875 5.515625 0.171875 Z M 5.515625 0.171875 "/></g></g></g><g fill="#000000" fill-opacity="1"><g transform="translate(147.041414, 143.154689)"><g><path d="M 3.546875 0.109375 C 2.921875 0.109375 2.304688 0.0351562 1.703125 -0.109375 C 1.109375 -0.265625 0.632812 -0.460938 0.28125 -0.703125 L 1.015625 -2.265625 C 1.347656 -2.054688 1.75 -1.882812 2.21875 -1.75 C 2.695312 -1.613281 3.164062 -1.546875 3.625 -1.546875 C 4.550781 -1.546875 5.015625 -1.769531 5.015625 -2.21875 C 5.015625 -2.4375 4.882812 -2.59375 4.625 -2.6875 C 4.375 -2.78125 3.988281 -2.859375 3.46875 -2.921875 C 2.851562 -3.015625 2.34375 -3.125 1.9375 -3.25 C 1.539062 -3.375 1.195312 -3.585938 0.90625 -3.890625 C 0.613281 -4.203125 0.46875 -4.640625 0.46875 -5.203125 C 0.46875 -5.679688 0.601562 -6.101562 0.875 -6.46875 C 1.144531 -6.84375 1.546875 -7.128906 2.078125 -7.328125 C 2.609375 -7.535156 3.234375 -7.640625 3.953125 -7.640625 C 4.484375 -7.640625 5.007812 -7.582031 5.53125 -7.46875 C 6.0625 -7.351562 6.5 -7.191406 6.84375 -6.984375 L 6.125 -5.4375 C 5.457031 -5.800781 4.734375 -5.984375 3.953125 -5.984375 C 3.484375 -5.984375 3.128906 -5.914062 2.890625 -5.78125 C 2.660156 -5.65625 2.546875 -5.492188 2.546875 -5.296875 C 2.546875 -5.054688 2.671875 -4.890625 2.921875 -4.796875 C 3.171875 -4.703125 3.570312 -4.613281 4.125 -4.53125 C 4.738281 -4.425781 5.242188 -4.316406 5.640625 -4.203125 C 6.035156 -4.085938 6.375 -3.875 6.65625 -3.5625 C 6.945312 -3.257812 7.09375 -2.832031 7.09375 -2.28125 C 7.09375 -1.8125 6.953125 -1.394531 6.671875 -1.03125 C 6.398438 -0.664062 5.992188 -0.382812 5.453125 -0.1875 C 4.910156 0.0078125 4.273438 0.109375 3.546875 0.109375 Z M 3.546875 0.109375 "/></g></g></g><g fill="#000000" fill-opacity="1"><g transform="translate(158.545266, 143.154689)"><g><path d="M 10.65625 -7.640625 C 11.59375 -7.640625 12.335938 -7.363281 12.890625 -6.8125 C 13.453125 -6.257812 13.734375 -5.425781 13.734375 -4.3125 L 13.734375 0 L 11.546875 0 L 11.546875 -3.96875 C 11.546875 -4.570312 11.421875 -5.019531 11.171875 -5.3125 C 10.929688 -5.601562 10.582031 -5.75 10.125 -5.75 C 9.613281 -5.75 9.207031 -5.582031 8.90625 -5.25 C 8.601562 -4.925781 8.453125 -4.4375 8.453125 -3.78125 L 8.453125 0 L 6.265625 0 L 6.265625 -3.96875 C 6.265625 -5.15625 5.789062 -5.75 4.84375 -5.75 C 4.34375 -5.75 3.941406 -5.582031 3.640625 -5.25 C 3.335938 -4.925781 3.1875 -4.4375 3.1875 -3.78125 L 3.1875 0 L 1.015625 0 L 1.015625 -7.53125 L 3.09375 -7.53125 L 3.09375 -6.65625 C 3.375 -6.976562 3.71875 -7.222656 4.125 -7.390625 C 4.53125 -7.554688 4.972656 -7.640625 5.453125 -7.640625 C 5.992188 -7.640625 6.476562 -7.535156 6.90625 -7.328125 C 7.332031 -7.117188 7.675781 -6.8125 7.9375 -6.40625 C 8.25 -6.800781 8.640625 -7.101562 9.109375 -7.3125 C 9.578125 -7.53125 10.09375 -7.640625 10.65625 -7.640625 Z M 10.65625 -7.640625 "/></g></g></g><g fill="#000000" fill-opacity="1"><g transform="translate(177.297073, 143.154689)"><g><path d="M 4.046875 -7.640625 C 5.210938 -7.640625 6.109375 -7.363281 6.734375 -6.8125 C 7.359375 -6.257812 7.671875 -5.421875 7.671875 -4.296875 L 7.671875 0 L 5.625 0 L 5.625 -0.9375 C 5.21875 -0.238281 4.453125 0.109375 3.328125 0.109375 C 2.753906 0.109375 2.253906 0.015625 1.828125 -0.171875 C 1.398438 -0.367188 1.070312 -0.640625 0.84375 -0.984375 C 0.625 -1.335938 0.515625 -1.734375 0.515625 -2.171875 C 0.515625 -2.867188 0.773438 -3.414062 1.296875 -3.8125 C 1.828125 -4.21875 2.644531 -4.421875 3.75 -4.421875 L 5.484375 -4.421875 C 5.484375 -4.898438 5.335938 -5.265625 5.046875 -5.515625 C 4.765625 -5.773438 4.332031 -5.90625 3.75 -5.90625 C 3.351562 -5.90625 2.957031 -5.84375 2.5625 -5.71875 C 2.175781 -5.59375 1.847656 -5.421875 1.578125 -5.203125 L 0.796875 -6.734375 C 1.203125 -7.023438 1.691406 -7.25 2.265625 -7.40625 C 2.847656 -7.5625 3.441406 -7.640625 4.046875 -7.640625 Z M 3.875 -1.359375 C 4.25 -1.359375 4.582031 -1.441406 4.875 -1.609375 C 5.164062 -1.785156 5.367188 -2.039062 5.484375 -2.375 L 5.484375 -3.15625 L 3.984375 -3.15625 C 3.085938 -3.15625 2.640625 -2.859375 2.640625 -2.265625 C 2.640625 -1.984375 2.75 -1.757812 2.96875 -1.59375 C 3.1875 -1.4375 3.488281 -1.359375 3.875 -1.359375 Z M 3.875 -1.359375 "/></g></g></g><g fill="#000000" fill-opacity="1"><g transform="translate(190.00426, 143.154689)"><g><path d="M 5.59375 -7.640625 C 6.519531 -7.640625 7.269531 -7.359375 7.84375 -6.796875 C 8.414062 -6.242188 8.703125 -5.414062 8.703125 -4.3125 L 8.703125 0 L 6.53125 0 L 6.53125 -3.96875 C 6.53125 -4.570312 6.394531 -5.019531 6.125 -5.3125 C 5.863281 -5.601562 5.488281 -5.75 5 -5.75 C 4.445312 -5.75 4.003906 -5.578125 3.671875 -5.234375 C 3.347656 -4.898438 3.1875 -4.394531 3.1875 -3.71875 L 3.1875 0 L 1.015625 0 L 1.015625 -7.53125 L 3.09375 -7.53125 L 3.09375 -6.65625 C 3.382812 -6.96875 3.742188 -7.207031 4.171875 -7.375 C 4.597656 -7.550781 5.070312 -7.640625 5.59375 -7.640625 Z M 5.59375 -7.640625 "/></g></g></g><g fill="#000000" fill-opacity="1"><g transform="translate(203.746862, 143.154689)"><g/></g></g><g fill="#000000" fill-opacity="1"><g transform="translate(211.78066, 143.154689)"><g><path d="M 8.59375 -7.53125 L 8.59375 0 L 6.53125 0 L 6.53125 -0.890625 C 6.238281 -0.566406 5.890625 -0.316406 5.484375 -0.140625 C 5.085938 0.0234375 4.65625 0.109375 4.1875 0.109375 C 3.195312 0.109375 2.410156 -0.171875 1.828125 -0.734375 C 1.253906 -1.304688 0.96875 -2.15625 0.96875 -3.28125 L 0.96875 -7.53125 L 3.15625 -7.53125 L 3.15625 -3.59375 C 3.15625 -2.382812 3.660156 -1.78125 4.671875 -1.78125 C 5.191406 -1.78125 5.609375 -1.945312 5.921875 -2.28125 C 6.242188 -2.625 6.40625 -3.132812 6.40625 -3.8125 L 6.40625 -7.53125 Z M 8.59375 -7.53125 "/></g></g></g><g fill="#000000" fill-opacity="1"><g transform="translate(225.467301, 143.154689)"><g><path d="M 5.59375 -7.640625 C 6.519531 -7.640625 7.269531 -7.359375 7.84375 -6.796875 C 8.414062 -6.242188 8.703125 -5.414062 8.703125 -4.3125 L 8.703125 0 L 6.53125 0 L 6.53125 -3.96875 C 6.53125 -4.570312 6.394531 -5.019531 6.125 -5.3125 C 5.863281 -5.601562 5.488281 -5.75 5 -5.75 C 4.445312 -5.75 4.003906 -5.578125 3.671875 -5.234375 C 3.347656 -4.898438 3.1875 -4.394531 3.1875 -3.71875 L 3.1875 0 L 1.015625 0 L 1.015625 -7.53125 L 3.09375 -7.53125 L 3.09375 -6.65625 C 3.382812 -6.96875 3.742188 -7.207031 4.171875 -7.375 C 4.597656 -7.550781 5.070312 -7.640625 5.59375 -7.640625 Z M 5.59375 -7.640625 "/></g></g></g><g fill="#000000" fill-opacity="1"><g transform="translate(239.209903, 143.154689)"><g><path d="M 1.015625 -7.53125 L 3.1875 -7.53125 L 3.1875 0 L 1.015625 0 Z M 2.09375 -8.578125 C 1.695312 -8.578125 1.367188 -8.691406 1.109375 -8.921875 C 0.859375 -9.160156 0.734375 -9.453125 0.734375 -9.796875 C 0.734375 -10.140625 0.859375 -10.425781 1.109375 -10.65625 C 1.367188 -10.894531 1.695312 -11.015625 2.09375 -11.015625 C 2.5 -11.015625 2.828125 -10.898438 3.078125 -10.671875 C 3.328125 -10.453125 3.453125 -10.175781 3.453125 -9.84375 C 3.453125 -9.476562 3.328125 -9.175781 3.078125 -8.9375 C 2.828125 -8.695312 2.5 -8.578125 2.09375 -8.578125 Z M 2.09375 -8.578125 "/></g></g></g><g fill="#000000" fill-opacity="1"><g transform="translate(247.495562, 143.154689)"><g><path d="M 8.484375 -7.53125 L 5.3125 0 L 3.046875 0 L -0.109375 -7.53125 L 2.140625 -7.53125 L 4.234375 -2.40625 L 6.390625 -7.53125 Z M 8.484375 -7.53125 "/></g></g></g><g fill="#000000" fill-opacity="1"><g transform="translate(259.936892, 143.154689)"><g><path d="M 8.390625 -3.734375 C 8.390625 -3.710938 8.375 -3.519531 8.34375 -3.15625 L 2.640625 -3.15625 C 2.742188 -2.6875 2.988281 -2.316406 3.375 -2.046875 C 3.757812 -1.773438 4.234375 -1.640625 4.796875 -1.640625 C 5.191406 -1.640625 5.539062 -1.695312 5.84375 -1.8125 C 6.144531 -1.925781 6.425781 -2.109375 6.6875 -2.359375 L 7.859375 -1.109375 C 7.148438 -0.296875 6.113281 0.109375 4.75 0.109375 C 3.894531 0.109375 3.140625 -0.0507812 2.484375 -0.375 C 1.835938 -0.707031 1.335938 -1.164062 0.984375 -1.75 C 0.628906 -2.34375 0.453125 -3.015625 0.453125 -3.765625 C 0.453125 -4.503906 0.625 -5.171875 0.96875 -5.765625 C 1.320312 -6.359375 1.800781 -6.816406 2.40625 -7.140625 C 3.019531 -7.472656 3.707031 -7.640625 4.46875 -7.640625 C 5.207031 -7.640625 5.875 -7.476562 6.46875 -7.15625 C 7.0625 -6.84375 7.53125 -6.390625 7.875 -5.796875 C 8.21875 -5.203125 8.390625 -4.515625 8.390625 -3.734375 Z M 4.484375 -5.984375 C 3.984375 -5.984375 3.566406 -5.84375 3.234375 -5.5625 C 2.898438 -5.289062 2.695312 -4.910156 2.625 -4.421875 L 6.328125 -4.421875 C 6.253906 -4.898438 6.046875 -5.28125 5.703125 -5.5625 C 5.367188 -5.84375 4.960938 -5.984375 4.484375 -5.984375 Z M 4.484375 -5.984375 "/></g></g></g><g fill="#000000" fill-opacity="1"><g transform="translate(272.839967, 143.154689)"><g><path d="M 3.09375 -6.53125 C 3.351562 -6.894531 3.703125 -7.171875 4.140625 -7.359375 C 4.585938 -7.546875 5.101562 -7.640625 5.6875 -7.640625 L 5.6875 -5.625 C 5.4375 -5.644531 5.269531 -5.65625 5.1875 -5.65625 C 4.5625 -5.65625 4.070312 -5.476562 3.71875 -5.125 C 3.363281 -4.78125 3.1875 -4.257812 3.1875 -3.5625 L 3.1875 0 L 1.015625 0 L 1.015625 -7.53125 L 3.09375 -7.53125 Z M 3.09375 -6.53125 "/></g></g></g><g fill="#000000" fill-opacity="1"><g transform="translate(282.944607, 143.154689)"><g><path d="M 3.546875 0.109375 C 2.921875 0.109375 2.304688 0.0351562 1.703125 -0.109375 C 1.109375 -0.265625 0.632812 -0.460938 0.28125 -0.703125 L 1.015625 -2.265625 C 1.347656 -2.054688 1.75 -1.882812 2.21875 -1.75 C 2.695312 -1.613281 3.164062 -1.546875 3.625 -1.546875 C 4.550781 -1.546875 5.015625 -1.769531 5.015625 -2.21875 C 5.015625 -2.4375 4.882812 -2.59375 4.625 -2.6875 C 4.375 -2.78125 3.988281 -2.859375 3.46875 -2.921875 C 2.851562 -3.015625 2.34375 -3.125 1.9375 -3.25 C 1.539062 -3.375 1.195312 -3.585938 0.90625 -3.890625 C 0.613281 -4.203125 0.46875 -4.640625 0.46875 -5.203125 C 0.46875 -5.679688 0.601562 -6.101562 0.875 -6.46875 C 1.144531 -6.84375 1.546875 -7.128906 2.078125 -7.328125 C 2.609375 -7.535156 3.234375 -7.640625 3.953125 -7.640625 C 4.484375 -7.640625 5.007812 -7.582031 5.53125 -7.46875 C 6.0625 -7.351562 6.5 -7.191406 6.84375 -6.984375 L 6.125 -5.4375 C 5.457031 -5.800781 4.734375 -5.984375 3.953125 -5.984375 C 3.484375 -5.984375 3.128906 -5.914062 2.890625 -5.78125 C 2.660156 -5.65625 2.546875 -5.492188 2.546875 -5.296875 C 2.546875 -5.054688 2.671875 -4.890625 2.921875 -4.796875 C 3.171875 -4.703125 3.570312 -4.613281 4.125 -4.53125 C 4.738281 -4.425781 5.242188 -4.316406 5.640625 -4.203125 C 6.035156 -4.085938 6.375 -3.875 6.65625 -3.5625 C 6.945312 -3.257812 7.09375 -2.832031 7.09375 -2.28125 C 7.09375 -1.8125 6.953125 -1.394531 6.671875 -1.03125 C 6.398438 -0.664062 5.992188 -0.382812 5.453125 -0.1875 C 4.910156 0.0078125 4.273438 0.109375 3.546875 0.109375 Z M 3.546875 0.109375 "/></g></g></g><g fill="#000000" fill-opacity="1"><g transform="translate(294.448448, 143.154689)"><g><path d="M 4.046875 -7.640625 C 5.210938 -7.640625 6.109375 -7.363281 6.734375 -6.8125 C 7.359375 -6.257812 7.671875 -5.421875 7.671875 -4.296875 L 7.671875 0 L 5.625 0 L 5.625 -0.9375 C 5.21875 -0.238281 4.453125 0.109375 3.328125 0.109375 C 2.753906 0.109375 2.253906 0.015625 1.828125 -0.171875 C 1.398438 -0.367188 1.070312 -0.640625 0.84375 -0.984375 C 0.625 -1.335938 0.515625 -1.734375 0.515625 -2.171875 C 0.515625 -2.867188 0.773438 -3.414062 1.296875 -3.8125 C 1.828125 -4.21875 2.644531 -4.421875 3.75 -4.421875 L 5.484375 -4.421875 C 5.484375 -4.898438 5.335938 -5.265625 5.046875 -5.515625 C 4.765625 -5.773438 4.332031 -5.90625 3.75 -5.90625 C 3.351562 -5.90625 2.957031 -5.84375 2.5625 -5.71875 C 2.175781 -5.59375 1.847656 -5.421875 1.578125 -5.203125 L 0.796875 -6.734375 C 1.203125 -7.023438 1.691406 -7.25 2.265625 -7.40625 C 2.847656 -7.5625 3.441406 -7.640625 4.046875 -7.640625 Z M 3.875 -1.359375 C 4.25 -1.359375 4.582031 -1.441406 4.875 -1.609375 C 5.164062 -1.785156 5.367188 -2.039062 5.484375 -2.375 L 5.484375 -3.15625 L 3.984375 -3.15625 C 3.085938 -3.15625 2.640625 -2.859375 2.640625 -2.265625 C 2.640625 -1.984375 2.75 -1.757812 2.96875 -1.59375 C 3.1875 -1.4375 3.488281 -1.359375 3.875 -1.359375 Z M 3.875 -1.359375 "/></g></g></g><g fill="#000000" fill-opacity="1"><g transform="translate(307.155646, 143.154689)"><g><path d="M 1.015625 -10.390625 L 3.1875 -10.390625 L 3.1875 0 L 1.015625 0 Z M 1.015625 -10.390625 "/></g></g></g><g fill="#000000" fill-opacity="1"><g transform="translate(315.441306, 143.154689)"><g/></g></g><g fill="#000000" fill-opacity="1"><g transform="translate(323.475103, 143.154689)"><g><path d="M 1.015625 -10.390625 L 3.1875 -10.390625 L 3.1875 0 L 1.015625 0 Z M 1.015625 -10.390625 "/></g></g></g><g fill="#000000" fill-opacity="1"><g transform="translate(331.760763, 143.154689)"><g><path d="M 1.015625 -7.53125 L 3.1875 -7.53125 L 3.1875 0 L 1.015625 0 Z M 2.09375 -8.578125 C 1.695312 -8.578125 1.367188 -8.691406 1.109375 -8.921875 C 0.859375 -9.160156 0.734375 -9.453125 0.734375 -9.796875 C 0.734375 -10.140625 0.859375 -10.425781 1.109375 -10.65625 C 1.367188 -10.894531 1.695312 -11.015625 2.09375 -11.015625 C 2.5 -11.015625 2.828125 -10.898438 3.078125 -10.671875 C 3.328125 -10.453125 3.453125 -10.175781 3.453125 -9.84375 C 3.453125 -9.476562 3.328125 -9.175781 3.078125 -8.9375 C 2.828125 -8.695312 2.5 -8.578125 2.09375 -8.578125 Z M 2.09375 -8.578125 "/></g></g></g><g fill="#000000" fill-opacity="1"><g transform="translate(340.046422, 143.154689)"><g><path d="M 5.59375 -7.640625 C 6.519531 -7.640625 7.269531 -7.359375 7.84375 -6.796875 C 8.414062 -6.242188 8.703125 -5.414062 8.703125 -4.3125 L 8.703125 0 L 6.53125 0 L 6.53125 -3.96875 C 6.53125 -4.570312 6.394531 -5.019531 6.125 -5.3125 C 5.863281 -5.601562 5.488281 -5.75 5 -5.75 C 4.445312 -5.75 4.003906 -5.578125 3.671875 -5.234375 C 3.347656 -4.898438 3.1875 -4.394531 3.1875 -3.71875 L 3.1875 0 L 1.015625 0 L 1.015625 -7.53125 L 3.09375 -7.53125 L 3.09375 -6.65625 C 3.382812 -6.96875 3.742188 -7.207031 4.171875 -7.375 C 4.597656 -7.550781 5.070312 -7.640625 5.59375 -7.640625 Z M 5.59375 -7.640625 "/></g></g></g><g fill="#000000" fill-opacity="1"><g transform="translate(353.789035, 143.154689)"><g><path d="M 4.234375 -2.953125 L 3.1875 -1.921875 L 3.1875 0 L 1.015625 0 L 1.015625 -10.390625 L 3.1875 -10.390625 L 3.1875 -4.515625 L 6.390625 -7.53125 L 8.984375 -7.53125 L 5.859375 -4.34375 L 9.265625 0 L 6.625 0 Z M 4.234375 -2.953125 "/></g></g></g><g transform="matrix(1, 0, 0, 1, 131, 199)"><g clip-path="url(#998962886a)"><g fill="#000000" fill-opacity="1"><g transform="translate(0.958555, 12.39645)"><g><path d="M 0.78125 -3.140625 L 0.78125 -4.453125 L 3.03125 -5.765625 L 2.28125 -6.21875 L 2.28125 -7.53125 L 4.15625 -6.4375 L 6.015625 -7.53125 L 6.015625 -6.21875 L 5.28125 -5.765625 L 8.015625 -4.171875 L 7.3125 -3.265625 L 4.140625 -5.109375 Z M 5.828125 0 L 5.828125 -1.125 L 9.453125 -5.796875 L 9.453125 -3.890625 L 6.46875 0 Z M 6.1875 -6.328125 L 6.1875 -11.03125 L 7.359375 -9.921875 L 7.359375 -7.4375 Z M 2.125 -11.03125 L 2.125 -6.328125 L 0.953125 -7.4375 L 0.953125 -9.921875 Z M 2.28125 -9.921875 L 2.28125 -11.03125 L 6.015625 -11.03125 L 6.015625 -9.921875 Z M 2.125 0 L 2.125 -1.125 L 5.671875 -1.125 L 5.671875 0 Z M 1.96875 -3.65625 L 1.96875 0 L 0.78125 -1.125 L 0.78125 -2.984375 Z M 8.609375 -2.515625 L 9.28125 -3.453125 L 9.453125 -3.34375 L 9.453125 -2.03125 Z M 8.609375 -2.515625 "/></g></g></g></g></g></svg>